<?xml version="1.0" standalone="no"?>
<!DOCTYPE svg PUBLIC "-//W3C//DTD SVG 20010904//EN"
 "http://www.w3.org/TR/2001/REC-SVG-20010904/DTD/svg10.dtd">
<svg version="1.0" xmlns="http://www.w3.org/2000/svg"
 width="512.000000pt" height="512.000000pt" viewBox="0 0 512.000000 512.000000"
 preserveAspectRatio="xMidYMid meet">

<g transform="translate(0.000000,512.000000) scale(0.100000,-0.100000)"
fill="#000000" stroke="none">
<path d="M1728 5110 c-825 -61 -1512 -662 -1683 -1474 -131 -615 58 -1257 500
-1701 321 -322 721 -507 1188 -546 324 -28 687 45 982 197 l120 61 785 -783
c865 -863 824 -827 979 -855 186 -33 387 71 470 243 63 129 62 266 -1 398 -28
60 -95 130 -814 850 l-783 785 54 106 c100 195 159 380 191 599 24 171 15 471
-20 636 -196 922 -1032 1553 -1968 1484z m404 -329 c631 -108 1118 -579 1260
-1218 19 -83 22 -130 22 -308 1 -226 -11 -311 -69 -491 -37 -115 -133 -305
-206 -409 -82 -115 -259 -292 -374 -374 -104 -73 -294 -169 -409 -206 -177
-57 -265 -69 -486 -69 -231 0 -321 14 -511 80 -458 159 -829 542 -968 999 -57
189 -66 252 -65 470 0 216 13 305 70 480 161 494 587 893 1089 1020 194 49
451 59 647 26z m1243 -2851 l90 -90 -93 -93 -92 -92 -91 91 -92 92 89 90 c49
50 91 91 94 91 3 1 46 -40 95 -89z m870 -870 l550 -550 0 -60 c0 -54 -3 -63
-33 -92 -29 -30 -38 -33 -92 -33 l-60 0 -552 552 -553 553 90 90 c49 49 92 90
95 90 3 0 253 -248 555 -550z"/>
<path d="M1755 4554 c-174 -19 -379 -80 -430 -128 -66 -62 -69 -159 -8 -221
54 -53 111 -58 224 -19 109 38 207 54 332 54 240 0 455 -78 634 -230 109 -92
122 -100 172 -100 63 0 110 28 138 80 44 83 26 138 -73 229 -172 157 -401 271
-636 316 -84 16 -282 26 -353 19z"/>
</g>
</svg>
